<svg width="17" height="17" viewBox="0 0 17 17" fill="none" xmlns="http://www.w3.org/2000/svg">
<path d="M8.31271 16.5C8.79996 16.5002 9.27051 16.3225 9.63601 16.0002C10.0015 15.678 10.2368 15.2334 10.2977 14.75C10.3147 14.613 10.2007 14.5 10.0627 14.5H6.56271C6.42471 14.5 6.31071 14.613 6.32771 14.75C6.38861 15.2334 6.62391 15.678 6.9894 16.0002C7.3549 16.3225 7.82545 16.5002 8.31271 16.5ZM3.31271 5.5C3.31271 4.17392 3.83949 2.90215 4.77717 1.96447C5.71485 1.02678 6.98662 0.5 8.31271 0.5C9.63879 0.5 10.9106 1.02678 11.8482 1.96447C12.7859 2.90215 13.3127 4.17392 13.3127 5.5V8.447C13.3127 8.497 13.3277 8.545 13.3547 8.586L15.0577 11.141C15.2095 11.3697 15.2965 11.6352 15.3094 11.9093C15.3224 12.1835 15.2608 12.456 15.1312 12.698C15.0017 12.9399 14.809 13.1423 14.5737 13.2835C14.3384 13.4247 14.0692 13.4995 13.7947 13.5H2.83071C2.55568 13.5007 2.28566 13.4265 2.04956 13.2855C1.81346 13.1444 1.62018 12.9418 1.49041 12.6993C1.36064 12.4568 1.29928 12.1836 1.31289 11.9089C1.32651 11.6343 1.41459 11.3685 1.56771 11.14L3.27071 8.586C3.29788 8.54472 3.31247 8.49642 3.31271 8.447V5.5ZM8.31271 2C7.38445 2 6.49421 2.36875 5.83783 3.02513C5.18145 3.6815 4.81271 4.57174 4.81271 5.5V8.447C4.81271 8.793 4.71071 9.13 4.51871 9.417L2.81571 11.973C2.81368 11.9759 2.81263 11.9794 2.81271 11.983L2.81371 11.989C2.81371 11.991 2.81571 11.993 2.81771 11.995L2.82371 11.999L2.83071 12H13.7947L13.8017 11.999L13.8077 11.995L13.8117 11.989L13.8127 11.982C13.8128 11.9784 13.8117 11.9749 13.8097 11.972L12.1067 9.418C11.9149 9.13088 11.8126 8.7933 11.8127 8.448V5.5C11.8127 4.57174 11.444 3.6815 10.7876 3.02513C10.1312 2.36875 9.24096 2 8.31271 2Z" fill="white"/>
</svg>
