<svg width="22" height="22" viewBox="0 0 22 22" fill="none" xmlns="http://www.w3.org/2000/svg">
<path id="star" d="M21.9186 7.94569C21.7281 7.39636 21.2393 6.99416 20.6508 6.90685L14.9265 6.05569L12.4383 0.889653C12.1764 0.347199 11.616 0 11 0C10.384 0 9.82367 0.347199 9.56172 0.889653L7.07358 6.05569L1.34859 6.90685C0.760756 6.99416 0.271928 7.39636 0.0821717 7.94569C-0.106897 8.4964 0.0361078 9.10279 0.451371 9.51668L4.64663 13.7051L3.67379 19.5153C3.57478 20.1004 3.82848 20.6875 4.32556 21.0299C4.5985 21.2176 4.91958 21.3132 5.24065 21.3132C5.50466 21.3132 5.76935 21.2486 6.0093 21.12L11 18.4332L15.9914 21.12C16.2314 21.2486 16.4961 21.3132 16.7594 21.3132C17.0805 21.3132 17.4015 21.2176 17.6752 21.0299C18.1723 20.6875 18.4246 20.1004 18.3263 19.5153L17.3527 13.7051L21.5494 9.51668C21.9639 9.1021 22.1063 8.49571 21.9186 7.94569ZM16.2169 12.625C15.8649 12.9756 15.7054 13.4699 15.7859 13.9546L16.7594 19.7649L11.768 17.0794C11.5287 16.9502 11.2647 16.8862 10.9993 16.8862C10.7353 16.8862 10.4706 16.9509 10.2314 17.0794L5.23996 19.7649L6.21349 13.9546C6.29462 13.4699 6.13511 12.9756 5.7831 12.625L1.58784 8.43658L7.31215 7.58406C7.83536 7.50637 8.28568 7.1791 8.5105 6.71228L11 1.54761L13.4889 6.71297C13.7144 7.17979 14.164 7.50637 14.6865 7.58474L20.4122 8.43727L16.2169 12.625Z" fill="#A5A6A8"/>
</svg>
